<svg width="41" height="24" viewBox="0 0 41 24" fill="none" xmlns="http://www.w3.org/2000/svg">
<path d="M0.258189 23.77C0.0737684 23.5843 0 23.3986 0 23.1386V0.891373C0 0.63139 0.0737684 0.445687 0.221305 0.259984C0.405726 0.0742811 0.590147 0 0.848336 0H16.9298C17.188 0 17.3724 0.0742811 17.5569 0.259984C17.7413 0.445687 17.8151 0.63139 17.8151 0.891373V4.27116C17.8151 4.53115 17.7413 4.71685 17.5569 4.90255C17.3724 5.05112 17.188 5.1254 16.9298 5.1254H6.15966V9.47084H16.1922C16.4503 9.47084 16.6348 9.54512 16.8192 9.73083C17.0036 9.91653 17.0774 10.1022 17.0774 10.3622V13.482C17.0774 13.742 17.0036 13.9277 16.8192 14.1134C16.6348 14.2991 16.4503 14.3734 16.1922 14.3734H6.15966V18.8303H17.188C17.4462 18.8303 17.6306 18.9045 17.8151 19.0902C17.9995 19.2759 18.0732 19.4617 18.0732 19.7216V23.1014C18.0732 23.3614 17.9995 23.5471 17.8151 23.7328C17.6306 23.8814 17.4462 23.9557 17.188 23.9557H0.848336C0.627031 24.0299 0.44261 23.9185 0.258189 23.77Z" fill="#333333"/>
<path d="M20.065 23.77C19.8806 23.5843 19.8068 23.3986 19.8068 23.1757V0.891374C19.8068 0.63139 19.8806 0.445687 20.0281 0.259984C20.1757 0.0742811 20.397 0 20.6552 0H30.0237C33.0114 0 35.372 0.66853 37.0686 2.04273C38.7653 3.41693 39.6136 5.34824 39.6136 7.83666C39.6136 9.4337 39.2448 10.8079 38.5071 11.9221C37.7694 13.0363 36.7367 13.9277 35.4457 14.522L40.0562 22.8786C40.13 23.0271 40.1669 23.1386 40.1669 23.25C40.1669 23.4357 40.0931 23.5843 39.9456 23.7328C39.7981 23.8814 39.6505 23.9557 39.4292 23.9557H34.6343C33.9704 23.9557 33.5277 23.6585 33.2327 23.0271L29.5074 15.6362H26.2247V23.1386C26.2247 23.3986 26.1509 23.5843 25.9665 23.77C25.7821 23.9185 25.5976 23.9928 25.3395 23.9928H20.692C20.4339 24.0299 20.2494 23.9185 20.065 23.77ZM30.0237 10.5851C30.9827 10.5851 31.7573 10.3251 32.2368 9.84225C32.7532 9.35942 33.0114 8.65375 33.0114 7.79952C33.0114 6.94529 32.7532 6.23961 32.2368 5.71965C31.7204 5.19968 30.9827 4.93969 30.0237 4.93969H26.2247V10.5851H30.0237Z" fill="#333333"/>
</svg>
