<svg width="287" height="332" viewBox="0 0 287 332" fill="none" xmlns="http://www.w3.org/2000/svg">
<g style="mix-blend-mode:multiply">
<path d="M266.423 68.9816C277.787 68.9816 287 59.7956 287 48.464C287 37.1325 277.787 27.9464 266.423 27.9464C255.06 27.9464 245.848 37.1325 245.848 48.464C245.848 59.7956 255.06 68.9816 266.423 68.9816Z" fill="#88EC13"/>
</g>
<g style="mix-blend-mode:multiply">
<path d="M154.675 160.603C199.15 160.603 235.205 124.651 235.205 80.3017C235.205 35.9523 199.15 0 154.675 0C110.199 0 74.1444 35.9523 74.1444 80.3017C74.1444 124.651 110.199 160.603 154.675 160.603Z" fill="#FFD403"/>
</g>
<g style="mix-blend-mode:multiply">
<path d="M57.471 133.718C89.2113 133.718 114.942 108.061 114.942 76.4104C114.942 44.7602 89.2113 19.1026 57.471 19.1026C25.7306 19.1026 0 44.7602 0 76.4104C0 108.061 25.7306 133.718 57.471 133.718Z" fill="#FF236B"/>
</g>
<g style="mix-blend-mode:multiply">
<path d="M77.6924 231C113.547 231 142.613 202.016 142.613 166.263C142.613 130.51 113.547 101.527 77.6924 101.527C41.8376 101.527 12.7716 130.51 12.7716 166.263C12.7716 202.016 41.8376 231 77.6924 231Z" fill="#7484FF"/>
</g>
<g style="mix-blend-mode:multiply">
<path d="M194.408 231C241.234 231 279.195 193.147 279.195 146.453C279.195 99.7594 241.234 61.9066 194.408 61.9066C147.581 61.9066 109.62 99.7594 109.62 146.453C109.62 193.147 147.581 231 194.408 231Z" fill="#06D2D2"/>
</g>
<path d="M73.5776 158.789C72.8896 158.097 72.6145 157.404 72.6145 156.434V73.4426C72.6145 72.4727 72.8896 71.78 73.44 71.0872C74.128 70.3945 74.816 70.1174 75.7791 70.1174H135.77C136.733 70.1174 137.421 70.3945 138.109 71.0872C138.797 71.78 139.072 72.4727 139.072 73.4426V86.0506C139.072 87.0205 138.797 87.7132 138.109 88.406C137.421 88.9602 136.733 89.2373 135.77 89.2373H95.5926V105.448H133.018C133.981 105.448 134.669 105.725 135.357 106.417C136.045 107.11 136.32 107.803 136.32 108.773V120.411C136.32 121.381 136.045 122.074 135.357 122.766C134.669 123.459 133.981 123.736 133.018 123.736H95.5926V140.362H136.733C137.696 140.362 138.384 140.639 139.072 141.332C139.76 142.025 140.035 142.718 140.035 143.687V156.295C140.035 157.265 139.76 157.958 139.072 158.651C138.384 159.205 137.696 159.482 136.733 159.482H75.7791C74.9535 159.759 74.2656 159.344 73.5776 158.789Z" fill="white"/>
<path d="M72.8681 159.494L72.9071 159.533L72.9503 159.568C73.6135 160.102 74.6336 160.827 75.9248 160.482H136.733C137.941 160.482 138.847 160.116 139.699 159.43L139.743 159.395L139.782 159.355C140.199 158.936 140.524 158.481 140.738 157.953C140.952 157.426 141.035 156.877 141.035 156.295V143.687C141.035 143.106 140.952 142.556 140.738 142.029C140.524 141.501 140.199 141.047 139.782 140.627C139.365 140.208 138.913 139.88 138.387 139.663C137.861 139.446 137.313 139.362 136.733 139.362H96.5926V124.736H133.018C133.598 124.736 134.146 124.652 134.672 124.436C135.198 124.219 135.65 123.891 136.067 123.471C136.484 123.051 136.809 122.597 137.023 122.069C137.237 121.542 137.32 120.993 137.32 120.411V108.773C137.32 108.191 137.237 107.642 137.023 107.115C136.809 106.587 136.484 106.133 136.067 105.713C135.65 105.293 135.198 104.965 134.672 104.748C134.146 104.532 133.598 104.448 133.018 104.448H96.5926V90.2373H135.77C136.978 90.2373 137.884 89.8713 138.736 89.1847L138.779 89.1499L138.819 89.1106C139.235 88.6908 139.56 88.2366 139.775 87.7086C139.989 87.1815 140.072 86.6325 140.072 86.0506V73.4426C140.072 72.8607 139.989 72.3117 139.775 71.7846C139.56 71.2566 139.235 70.8024 138.819 70.3826C138.402 69.9629 137.95 69.6347 137.424 69.4179C136.898 69.2013 136.35 69.1174 135.77 69.1174H75.7791C75.1991 69.1174 74.6513 69.2013 74.1255 69.4179C73.5991 69.6347 73.1472 69.9629 72.7305 70.3826L72.6915 70.4218L72.657 70.4652C71.9758 71.3226 71.6145 72.2317 71.6145 73.4426V156.434C71.6145 157.016 71.6975 157.565 71.9116 158.092C72.1261 158.62 72.4512 159.074 72.8681 159.494Z" stroke="black" stroke-opacity="0.4" stroke-width="2"/>
<path d="M147.465 158.789C146.777 158.097 146.502 157.404 146.502 156.573V73.4426C146.502 72.4727 146.777 71.78 147.328 71.0872C147.878 70.3945 148.704 70.1174 149.667 70.1174H184.616C195.761 70.1174 204.567 72.6113 210.896 77.7376C217.225 82.864 220.39 90.0686 220.39 99.3514C220.39 105.309 219.014 110.435 216.262 114.592C213.51 118.748 209.658 122.074 204.842 124.29L222.041 155.464C222.316 156.018 222.454 156.434 222.454 156.85C222.454 157.542 222.179 158.097 221.628 158.651C221.078 159.205 220.528 159.482 219.702 159.482H201.815C199.338 159.482 197.687 158.374 196.586 156.018L182.689 128.447H170.443V156.434C170.443 157.404 170.168 158.097 169.48 158.789C168.792 159.344 168.104 159.621 167.141 159.621H149.804C148.841 159.759 148.153 159.344 147.465 158.789ZM184.616 109.604C188.193 109.604 191.083 108.634 192.871 106.833C194.798 105.032 195.761 102.4 195.761 99.2129C195.761 96.0262 194.798 93.3938 192.871 91.4541C190.945 89.5144 188.193 88.5445 184.616 88.5445H170.443V109.604H184.616Z" fill="white"/>
<path d="M146.756 159.494L146.795 159.533L146.838 159.568C147.57 160.157 148.521 160.787 149.871 160.621H167.141C168.349 160.621 169.255 160.255 170.108 159.568L170.151 159.533L170.19 159.494C170.607 159.074 170.932 158.62 171.146 158.092C171.36 157.565 171.443 157.016 171.443 156.434V129.447H182.074L195.687 156.456C196.292 157.745 197.083 158.77 198.131 159.466C199.187 160.168 200.422 160.482 201.815 160.482H219.702C220.232 160.482 220.719 160.392 221.177 160.187C221.63 159.984 222.004 159.692 222.338 159.355C223.025 158.664 223.454 157.869 223.454 156.85C223.454 156.202 223.235 155.619 222.937 155.019L222.927 155L222.917 154.981L206.228 124.733C210.761 122.45 214.427 119.175 217.096 115.144C219.977 110.792 221.39 105.464 221.39 99.3514C221.39 89.8144 218.124 82.3047 211.525 76.9605C204.958 71.6413 195.898 69.1174 184.616 69.1174H149.667C148.517 69.1174 147.348 69.4541 146.545 70.4652C145.864 71.3226 145.502 72.2317 145.502 73.4426V156.573C145.502 157.684 145.894 158.626 146.756 159.494ZM192.188 106.103L192.175 106.115L192.162 106.128C190.626 107.674 188.037 108.604 184.616 108.604H171.443V89.5445H184.616C188.012 89.5445 190.476 90.4612 192.162 92.1587C193.867 93.8759 194.761 96.2362 194.761 99.2129C194.761 102.2 193.862 104.537 192.188 106.103Z" stroke="black" stroke-opacity="0.4" stroke-width="2"/>
<path d="M21.485 273.452H27.511V272.141H14.125V273.452H20.151V289H21.485V273.452ZM37.9918 289V283.779H39.6478C40.1998 283.779 41.9248 283.756 42.7068 283.687C43.6958 285.918 45.0298 287.643 46.7778 289H49.0548C46.6628 287.367 45.0298 285.55 44.0178 283.434C46.5248 282.698 48.3418 280.697 48.3418 277.96C48.3418 274.004 45.1908 272.141 41.4418 272.141H36.6578V289H37.9918ZM37.9918 282.468V273.429H41.4418C44.5008 273.429 47.0538 274.878 47.0538 277.96C47.0538 281.088 44.1788 282.468 41.1658 282.468H37.9918ZM65.6957 281.134H58.7497V273.452H69.0767V272.141H57.4387V289H69.0767V287.689H58.7497V282.468H65.6957V281.134ZM80.3826 289V272.141H79.0486V289H80.3826ZM102.709 289V272.141H101.398V286.677L91.4623 272.164H90.1283V289H91.4623V274.464L101.421 289H102.709ZM127.079 289L120.064 271.911H119.006L111.669 289H113.072C113.394 288.195 113.877 287.183 114.245 286.332C114.452 285.872 114.728 285.297 114.912 284.814H123.905L125.63 289H127.079ZM119.535 274.096C120.869 277.408 122.065 280.191 123.399 283.503H115.418L119.535 274.096ZM137.426 289C137.794 285.527 138.185 281.824 138.576 278.351L138.99 274.556L144.395 283.687H145.476L147.753 279.915L151.042 274.487L152.583 289H153.917L152.146 272.164H150.881C148.949 275.384 146.902 278.696 144.924 281.939L139.128 272.164H137.909L136.138 289H137.426ZM171.464 281.134H164.518V273.452H174.845V272.141H163.207V289H174.845V287.689H164.518V282.468H171.464V281.134ZM196.524 289V272.141H195.213V286.677L185.277 272.164H183.943V289H185.277V274.464L195.236 289H196.524ZM213.027 273.452H219.053V272.141H205.667V273.452H211.693V289H213.027V273.452ZM235.744 289C240.735 289 243.196 284.791 243.196 280.582C243.196 276.35 240.712 272.141 235.698 272.141C230.707 272.141 228.246 276.35 228.246 280.559C228.246 284.791 230.73 289 235.744 289ZM235.606 273.452C239.769 273.452 241.816 276.994 241.816 280.536C241.816 284.124 239.723 287.689 235.744 287.689C231.581 287.689 229.557 284.147 229.557 280.628C229.557 277.04 231.627 273.452 235.606 273.452ZM258.65 289.437C261.548 289.437 264.515 288.057 264.584 284.63C264.63 281.755 260.835 280.559 258.719 279.938C256.741 279.34 253.912 278.328 253.797 276.465C254.004 274.165 256.258 273.015 258.374 273.015C260.743 273.015 262.353 273.958 263.779 275.131L264.745 274.211C263.066 272.808 261.157 271.704 258.374 271.704C255.43 271.704 252.44 273.245 252.44 276.442C252.44 279.478 256.097 280.582 258.305 281.203C260.375 281.824 263.273 282.836 263.25 284.699C263.227 287.045 260.881 288.126 258.65 288.126C256.281 288.126 254.648 287.183 253.222 286.01L252.279 286.93C253.958 288.31 255.844 289.437 258.65 289.437Z" fill="#4B5765"/>
<path d="M28.6357 324.172L26.8187 322.148L26.3357 321.619C27.2787 320.216 27.9687 318.008 28.2447 316.053L26.9337 316.007C26.7497 317.571 26.1517 319.411 25.4387 320.63L19.1597 313.661C18.7457 313.247 18.4927 312.626 18.4927 312.005C18.4927 310.602 19.6197 309.429 20.9997 309.429C21.7587 309.429 22.5867 309.843 23.2537 310.602L24.1737 309.682C23.2767 308.693 22.1037 308.141 20.9997 308.141C18.8837 308.141 17.2047 309.912 17.2047 311.982C17.2047 313.523 18.0327 314.397 18.9297 315.363C16.7447 316.398 14.9737 317.571 14.9737 320.4C14.9737 323.344 17.4117 325 20.0797 325C22.2877 325 24.0817 324.195 25.5307 322.654L27.6927 325.023L28.6357 324.172ZM24.6797 321.665C23.4837 322.884 21.8507 323.712 20.0797 323.712C18.0787 323.712 16.2617 322.562 16.2617 320.4C16.2617 318.192 17.9867 317.203 19.8497 316.398L24.6797 321.665ZM45.3917 325.092C47.7607 325.092 49.5317 324.425 51.5097 322.815L50.6587 321.803C48.9567 323.206 47.4387 323.758 45.3917 323.758C41.2287 323.758 38.9747 320.63 38.9747 316.536C38.9747 312.442 41.2287 309.337 45.3917 309.337C47.4387 309.337 48.9107 309.889 50.6357 311.453L51.5097 310.487C49.5317 308.67 47.8067 308.003 45.3917 308.003C40.4237 308.003 37.6637 311.683 37.6637 316.536C37.6637 321.734 40.6997 325.092 45.3917 325.092ZM68.0769 325C73.0679 325 75.5289 320.791 75.5289 316.582C75.5289 312.35 73.0449 308.141 68.0309 308.141C63.0399 308.141 60.5789 312.35 60.5789 316.559C60.5789 320.791 63.0629 325 68.0769 325ZM67.9389 309.452C72.1019 309.452 74.1489 312.994 74.1489 316.536C74.1489 320.124 72.0559 323.689 68.0769 323.689C63.9139 323.689 61.8899 320.147 61.8899 316.628C61.8899 313.04 63.9599 309.452 67.9389 309.452ZM97.3537 325V308.141H96.0427V322.677L86.1067 308.164H84.7727V325H86.1067V310.464L96.0657 325H97.3537ZM112.707 325.437C115.605 325.437 118.572 324.057 118.641 320.63C118.687 317.755 114.892 316.559 112.776 315.938C110.798 315.34 107.969 314.328 107.854 312.465C108.061 310.165 110.315 309.015 112.431 309.015C114.8 309.015 116.41 309.958 117.836 311.131L118.802 310.211C117.123 308.808 115.214 307.704 112.431 307.704C109.487 307.704 106.497 309.245 106.497 312.442C106.497 315.478 110.154 316.582 112.362 317.203C114.432 317.824 117.33 318.836 117.307 320.699C117.284 323.045 114.938 324.126 112.707 324.126C110.338 324.126 108.705 323.183 107.279 322.01L106.336 322.93C108.015 324.31 109.901 325.437 112.707 325.437ZM134.028 325C137.248 325 140.238 322.562 140.238 319.227V308.141H138.927V319.227C138.927 321.78 136.558 323.689 134.028 323.689C131.475 323.689 129.106 321.78 129.106 319.227V308.141H127.772V319.227C127.772 322.585 130.808 325 134.028 325ZM161.045 325V323.689H150.695V308.187H149.384V325H161.045ZM177.502 309.452H183.528V308.141H170.142V309.452H176.168V325H177.502V309.452ZM200.219 325C205.21 325 207.671 320.791 207.671 316.582C207.671 312.35 205.187 308.141 200.173 308.141C195.182 308.141 192.721 312.35 192.721 316.559C192.721 320.791 195.205 325 200.219 325ZM200.081 309.452C204.244 309.452 206.291 312.994 206.291 316.536C206.291 320.124 204.198 323.689 200.219 323.689C196.056 323.689 194.032 320.147 194.032 316.628C194.032 313.04 196.102 309.452 200.081 309.452ZM218.249 325V319.779H219.905C220.457 319.779 222.182 319.756 222.964 319.687C223.953 321.918 225.287 323.643 227.035 325H229.312C226.92 323.367 225.287 321.55 224.275 319.434C226.782 318.698 228.599 316.697 228.599 313.96C228.599 310.004 225.448 308.141 221.699 308.141H216.915V325H218.249ZM218.249 318.468V309.429H221.699C224.758 309.429 227.311 310.878 227.311 313.96C227.311 317.088 224.436 318.468 221.423 318.468H218.249ZM239.904 325V308.141H238.57V325H239.904ZM264.875 325L257.86 307.911H256.802L249.465 325H250.868C251.19 324.195 251.673 323.183 252.041 322.332C252.248 321.872 252.524 321.297 252.708 320.814H261.701L263.426 325H264.875ZM257.331 310.096C258.665 313.408 259.861 316.191 261.195 319.503H253.214L257.331 310.096Z" fill="#4B5765"/>
</svg>
