<svg width="155" height="94" viewBox="0 0 155 94" fill="none" xmlns="http://www.w3.org/2000/svg">
<path d="M3.57766 90.7893C2.88969 90.0965 2.6145 89.4038 2.6145 88.4339V5.44256C2.6145 4.47271 2.88969 3.77996 3.44006 3.08721C4.12803 2.39446 4.816 2.11736 5.77915 2.11736H65.7699C66.7331 2.11736 67.421 2.39446 68.109 3.08721C68.797 3.77996 69.0722 4.47271 69.0722 5.44256V18.0506C69.0722 19.0205 68.797 19.7132 68.109 20.4059C67.421 20.9601 66.7331 21.2372 65.7699 21.2372H25.5926V37.4476H63.0181C63.9812 37.4476 64.6692 37.7247 65.3571 38.4174C66.0451 39.1102 66.3203 39.8029 66.3203 40.7728V52.411C66.3203 53.3808 66.0451 54.0736 65.3571 54.7663C64.6692 55.4591 63.9812 55.7362 63.0181 55.7362H25.5926V72.3622H66.7331C67.6962 72.3622 68.3842 72.6393 69.0722 73.332C69.7601 74.0248 70.0353 74.7175 70.0353 75.6874V88.2954C70.0353 89.2653 69.7601 89.958 69.0722 90.6508C68.3842 91.205 67.6962 91.482 66.7331 91.482H5.77915C4.95359 91.7591 4.26562 91.3435 3.57766 90.7893Z" fill="white"/>
<path d="M2.86811 91.4939L2.90716 91.5333L2.95032 91.5681C3.61355 92.1023 4.63362 92.8266 5.92481 92.482H66.7331C67.9411 92.482 68.8472 92.1161 69.6995 91.4295L69.7427 91.3947L69.7817 91.3554C70.1986 90.9356 70.5237 90.4814 70.7382 89.9534C70.9523 89.4263 71.0353 88.8773 71.0353 88.2954V75.6874C71.0353 75.1055 70.9523 74.5565 70.7382 74.0294C70.5237 73.5014 70.1986 73.0471 69.7817 72.6274C69.365 72.2077 68.9131 71.8795 68.3867 71.6627C67.8609 71.4461 67.3131 71.3622 66.7331 71.3622H26.5926V56.7362H63.0181C63.5981 56.7362 64.1459 56.6523 64.6717 56.4357C65.1981 56.2188 65.6499 55.8906 66.0667 55.471C66.4836 55.0512 66.8087 54.5969 67.0232 54.069C67.2373 53.5419 67.3203 52.9928 67.3203 52.411V40.7728C67.3203 40.1909 67.2373 39.6419 67.0232 39.1148C66.8087 38.5868 66.4836 38.1326 66.0667 37.7128C65.6499 37.2931 65.1981 36.965 64.6717 36.7481C64.1459 36.5315 63.5981 36.4476 63.0181 36.4476H26.5926V22.2372H65.7699C66.9779 22.2372 67.884 21.8713 68.7363 21.1847L68.7795 21.1499L68.8186 21.1106C69.2355 20.6908 69.5605 20.2366 69.775 19.7086C69.9892 19.1815 70.0722 18.6325 70.0722 18.0506V5.44256C70.0722 4.8607 69.9892 4.31166 69.775 3.78458C69.5605 3.2566 69.2355 2.80235 68.8186 2.38256C68.4018 1.96291 67.95 1.63473 67.4236 1.41788C66.8978 1.20129 66.3499 1.11736 65.7699 1.11736H5.77915C5.19914 1.11736 4.65133 1.20129 4.12553 1.41788C3.59913 1.63472 3.14726 1.96291 2.73051 2.38256L2.69152 2.42183L2.65709 2.46516C1.97588 3.32259 1.6145 4.23169 1.6145 5.44256V88.434C1.6145 89.0158 1.6975 89.5648 1.91163 90.0919C2.12613 90.6199 2.45121 91.0742 2.86811 91.4939Z" stroke="black" stroke-opacity="0.4" stroke-width="2"/>
<path d="M77.4654 90.7893C76.7774 90.0966 76.5022 89.4038 76.5022 88.5725V5.44256C76.5022 4.47271 76.7774 3.77996 77.3278 3.08721C77.8781 2.39446 78.7037 2.11736 79.6668 2.11736H114.616C125.761 2.11736 134.567 4.61126 140.896 9.73761C147.225 14.864 150.39 22.0686 150.39 31.3514C150.39 37.309 149.014 42.4354 146.262 46.5919C143.51 50.7484 139.658 54.0736 134.842 56.2904L152.041 87.4641C152.316 88.0183 152.454 88.434 152.454 88.8496C152.454 89.5424 152.179 90.0966 151.628 90.6508C151.078 91.205 150.528 91.4821 149.702 91.4821H131.815C129.338 91.4821 127.687 90.3737 126.586 88.0183L112.689 60.4469H100.443V88.434C100.443 89.4038 100.168 90.0966 99.4803 90.7893C98.7924 91.3435 98.1044 91.6206 97.1412 91.6206H79.8044C78.8413 91.7592 78.1533 91.3435 77.4654 90.7893ZM114.616 41.6041C118.193 41.6041 121.083 40.6342 122.871 38.8331C124.798 37.0319 125.761 34.3995 125.761 31.2128C125.761 28.0262 124.798 25.3937 122.871 23.4541C120.945 21.5144 118.193 20.5445 114.616 20.5445H100.443V41.6041H114.616Z" fill="white"/>
<path d="M76.7558 91.494L76.7949 91.5333L76.838 91.5681C77.5696 92.1574 78.5214 92.7867 79.8705 92.6206H97.1412C98.3492 92.6206 99.2553 92.2547 100.108 91.5681L100.151 91.5333L100.19 91.494C100.607 91.0742 100.932 90.6199 101.146 90.0919C101.36 89.5649 101.443 89.0158 101.443 88.434V61.4469H112.073L125.687 88.4554C126.292 89.7452 127.083 90.77 128.131 91.4663C129.187 92.1682 130.422 92.4821 131.815 92.4821H149.702C150.232 92.4821 150.719 92.3918 151.177 92.187C151.63 91.9842 152.004 91.6917 152.338 91.3554C153.025 90.6638 153.454 89.8693 153.454 88.8496C153.454 88.2019 153.235 87.6193 152.937 87.0194L152.927 87L152.917 86.981L136.228 56.7325C140.761 54.4496 144.427 51.1754 147.096 47.1439C149.977 42.7922 151.39 37.4639 151.39 31.3514C151.39 21.8144 148.124 14.3047 141.525 8.96052C134.958 3.64129 125.898 1.11736 114.616 1.11736H79.6668C78.5172 1.11736 77.348 1.45413 76.5448 2.46516C75.8636 3.32259 75.5022 4.23169 75.5022 5.44256V88.5725C75.5022 89.6841 75.8936 90.6257 76.7558 91.494ZM122.188 38.1027L122.175 38.1153L122.162 38.1284C120.626 39.6744 118.037 40.6041 114.616 40.6041H101.443V21.5445H114.616C118.012 21.5445 120.476 22.4612 122.162 24.1587C123.867 25.8759 124.761 28.2362 124.761 31.2128C124.761 34.1995 123.862 36.5374 122.188 38.1027Z" stroke="black" stroke-opacity="0.4" stroke-width="2"/>
</svg>
