<svg id="Layer_1" data-name="Layer 1" xmlns="http://www.w3.org/2000/svg" width="16" height="16" viewBox="0 0 16 16">
  <defs>
    <style>
      .cls-1 {
        fill: #758088;
      }
    </style>
  </defs>
  <title>insta</title>
  <g>
    <path class="cls-1" d="M11.14,1H4.86A3.86,3.86,0,0,0,1,4.86v6.28A3.86,3.86,0,0,0,4.86,15h6.28A3.86,3.86,0,0,0,15,11.14V4.86A3.86,3.86,0,0,0,11.14,1Zm2.62,10.14a2.63,2.63,0,0,1-2.62,2.62H4.86a2.63,2.63,0,0,1-2.62-2.62V4.86A2.63,2.63,0,0,1,4.86,2.24h6.28a2.63,2.63,0,0,1,2.62,2.62v6.28Z"/>
    <path class="cls-1" d="M8,4.39A3.61,3.61,0,1,0,11.61,8,3.61,3.61,0,0,0,8,4.39Zm0,6A2.37,2.37,0,1,1,10.37,8,2.38,2.38,0,0,1,8,10.37Z"/>
    <path class="cls-1" d="M11.76,3.34a.89.89,0,0,0-.64.27.89.89,0,0,0,0,1.28.89.89,0,0,0,.64.27.91.91,0,0,0,0-1.82Z"/>
  </g>
</svg>
