<svg id="Layer_1" data-name="Layer 1" xmlns="http://www.w3.org/2000/svg" width="16" height="16" viewBox="0 0 16 16">
  <defs>
    <style>
      .cls-1 {
        fill: #758088;
      }
    </style>
  </defs>
  <title>mail</title>
  <path class="cls-1" d="M14.59,1.91H1.41A1.41,1.41,0,0,0,0,3.31v9.38a1.41,1.41,0,0,0,1.41,1.4H14.59A1.41,1.41,0,0,0,16,12.69V3.31A1.41,1.41,0,0,0,14.59,1.91Zm-.19.93L8,9.21,1.6,2.84ZM.94,12.49v-9L5.45,8Zm.66.67L6.12,8.64,7.7,10.21a.47.47,0,0,0,.66,0L9.91,8.66l4.49,4.5Zm13.46-.67L10.57,8l4.49-4.49Z"/>
</svg>
