<svg width="213" height="42" viewBox="0 0 213 42" fill="none" xmlns="http://www.w3.org/2000/svg">
<path d="M6.2423 1.48255H11.3532V0.370636H0V1.48255H5.11088V14.6694H6.2423V1.48255Z" fill="#4B5765"/>
<path d="M20.2424 14.6694V10.2413H21.6469C22.1151 10.2413 23.5781 10.2218 24.2413 10.1632C25.0801 12.0554 26.2116 13.5185 27.6941 14.6694H29.6253C27.5966 13.2844 26.2116 11.7433 25.3532 9.94867C27.4795 9.32444 29.0206 7.62731 29.0206 5.30596C29.0206 1.95072 26.3481 0.370636 23.1684 0.370636H19.1109V14.6694H20.2424ZM20.2424 9.12937V1.46304H23.1684C25.7629 1.46304 27.9282 2.69199 27.9282 5.30596C27.9282 7.95893 25.4898 9.12937 22.9344 9.12937H20.2424Z" fill="#4B5765"/>
<path d="M43.7391 7.99795H37.8479V1.48255H46.6066V0.370636H36.736V14.6694H46.6066V13.5575H37.8479V9.12937H43.7391V7.99795Z" fill="#4B5765"/>
<path d="M56.1956 14.6694V0.370636H55.0642V14.6694H56.1956Z" fill="#4B5765"/>
<path d="M75.1318 14.6694V0.370636H74.0199V12.6992L65.5928 0.390143H64.4613V14.6694H65.5928V2.34086L74.0394 14.6694H75.1318Z" fill="#4B5765"/>
<path d="M95.8002 14.6694L89.8506 0.175565H88.9532L82.7304 14.6694H83.9204C84.1935 13.9867 84.6031 13.1283 84.9152 12.4066C85.0908 12.0164 85.3249 11.5287 85.4809 11.1191H93.1083L94.5713 14.6694H95.8002ZM89.4019 2.02875C90.5333 4.83778 91.5477 7.19815 92.6791 10.0072H85.9101L89.4019 2.02875Z" fill="#4B5765"/>
<path d="M104.577 14.6694C104.889 11.7238 105.22 8.58316 105.552 5.63758L105.903 2.41889L110.487 10.1632H111.404L113.335 6.96407L116.125 2.36037L117.432 14.6694H118.563L117.061 0.390143H115.988C114.35 3.12115 112.614 5.93019 110.936 8.6807L106.02 0.390143H104.986L103.484 14.6694H104.577Z" fill="#4B5765"/>
<path d="M133.445 7.99795H127.554V1.48255H136.313V0.370636H126.442V14.6694H136.313V13.5575H127.554V9.12937H133.445V7.99795Z" fill="#4B5765"/>
<path d="M154.7 14.6694V0.370636H153.588V12.6992L145.161 0.390143H144.029V14.6694H145.161V2.34086L153.607 14.6694H154.7Z" fill="#4B5765"/>
<path d="M168.697 1.48255H173.808V0.370636H162.454V1.48255H167.565V14.6694H168.697V1.48255Z" fill="#4B5765"/>
<path d="M187.964 14.6694C192.197 14.6694 194.284 11.0996 194.284 7.52978C194.284 3.94045 192.177 0.370636 187.925 0.370636C183.692 0.370636 181.604 3.94045 181.604 7.51027C181.604 11.0996 183.711 14.6694 187.964 14.6694ZM187.847 1.48255C191.378 1.48255 193.114 4.48665 193.114 7.49076C193.114 10.5339 191.339 13.5575 187.964 13.5575C184.433 13.5575 182.716 10.5534 182.716 7.56879C182.716 4.52567 184.472 1.48255 187.847 1.48255Z" fill="#4B5765"/>
<path d="M207.391 15.04C209.849 15.04 212.365 13.8696 212.424 10.963C212.463 8.52464 209.244 7.51027 207.45 6.98357C205.772 6.47639 203.373 5.61807 203.275 4.03799C203.451 2.08727 205.362 1.11191 207.157 1.11191C209.166 1.11191 210.532 1.9117 211.741 2.90657L212.561 2.12628C211.137 0.936345 209.517 0 207.157 0C204.66 0 202.124 1.30698 202.124 4.01848C202.124 6.59343 205.226 7.52978 207.099 8.05647C208.854 8.58316 211.312 9.44148 211.293 11.0216C211.273 13.0113 209.283 13.9281 207.391 13.9281C205.382 13.9281 203.997 13.1283 202.787 12.1335L201.988 12.9138C203.412 14.0842 205.011 15.04 207.391 15.04Z" fill="#4B5765"/>
<path d="M12.2587 40.9771L10.7176 39.2605L10.3079 38.8118C11.1077 37.6219 11.6929 35.7492 11.927 34.0911L10.8151 34.0521C10.6591 35.3785 10.1519 36.9391 9.54716 37.973L4.2217 32.0623C3.87057 31.7112 3.65599 31.1845 3.65599 30.6578C3.65599 29.4679 4.61184 28.473 5.78227 28.473C6.42601 28.473 7.12827 28.8241 7.69398 29.4679L8.47426 28.6876C7.71348 27.8488 6.71862 27.3806 5.78227 27.3806C3.98761 27.3806 2.56358 28.8827 2.56358 30.6383C2.56358 31.9453 3.26584 32.6866 4.02662 33.5059C2.17344 34.3837 0.671387 35.3785 0.671387 37.7779C0.671387 40.2749 2.73915 41.6794 5.00198 41.6794C6.87467 41.6794 8.39623 40.9966 9.62519 39.6896L11.4589 41.6989L12.2587 40.9771ZM8.90342 38.8508C7.88905 39.8847 6.50404 40.587 5.00198 40.587C3.30486 40.587 1.76379 39.6116 1.76379 37.7779C1.76379 35.9052 3.22683 35.0664 4.80691 34.3837L8.90342 38.8508Z" fill="#4B5765"/>
<path d="M26.4701 41.7574C28.4793 41.7574 29.9814 41.1917 31.659 39.8262L30.9372 38.9679C29.4937 40.1578 28.2062 40.626 26.4701 40.626C22.9393 40.626 21.0276 37.973 21.0276 34.5007C21.0276 31.0284 22.9393 28.395 26.4701 28.395C28.2062 28.395 29.4547 28.8631 30.9177 30.1896L31.659 29.3703C29.9814 27.8293 28.5184 27.2636 26.4701 27.2636C22.2566 27.2636 19.9157 30.3847 19.9157 34.5007C19.9157 38.9094 22.4906 41.7574 26.4701 41.7574Z" fill="#4B5765"/>
<path d="M45.7103 41.6794C49.9433 41.6794 52.0306 38.1096 52.0306 34.5397C52.0306 30.9504 49.9238 27.3806 45.6713 27.3806C41.4382 27.3806 39.3509 30.9504 39.3509 34.5202C39.3509 38.1096 41.4577 41.6794 45.7103 41.6794ZM45.5932 28.4925C49.124 28.4925 50.8602 31.4966 50.8602 34.5007C50.8602 37.5438 49.085 40.5675 45.7103 40.5675C42.1795 40.5675 40.4629 37.5634 40.4629 34.5788C40.4629 31.5356 42.2185 28.4925 45.5932 28.4925Z" fill="#4B5765"/>
<path d="M70.5411 41.6794V27.3806H69.4292V39.7091L61.0021 27.4001H59.8707V41.6794H61.0021V29.3508L69.4487 41.6794H70.5411Z" fill="#4B5765"/>
<path d="M83.5628 42.05C86.0207 42.05 88.5371 40.8796 88.5956 37.973C88.6346 35.5346 85.4159 34.5202 83.6213 33.9935C81.9437 33.4864 79.5443 32.628 79.4467 31.048C79.6223 29.0972 81.534 28.1219 83.3287 28.1219C85.3379 28.1219 86.7034 28.9217 87.9129 29.9165L88.7322 29.1362C87.3081 27.9463 85.689 27.01 83.3287 27.01C80.8318 27.01 78.2958 28.3169 78.2958 31.0284C78.2958 33.6034 81.3975 34.5397 83.2702 35.0664C85.0258 35.5931 87.4837 36.4514 87.4642 38.0315C87.4447 40.0213 85.455 40.9381 83.5628 40.9381C81.5535 40.9381 80.1685 40.1383 78.9591 39.1434L78.1593 39.9237C79.5833 41.0942 81.1829 42.05 83.5628 42.05Z" fill="#4B5765"/>
<path d="M101.646 41.6794C104.377 41.6794 106.913 39.6116 106.913 36.7831V27.3806H105.801V36.7831C105.801 38.9484 103.792 40.5675 101.646 40.5675C99.4806 40.5675 97.4714 38.9484 97.4714 36.7831V27.3806H96.34V36.7831C96.34 39.6311 98.9149 41.6794 101.646 41.6794Z" fill="#4B5765"/>
<path d="M124.56 41.6794V40.5675H115.782V27.4196H114.67V41.6794H124.56Z" fill="#4B5765"/>
<path d="M138.518 28.4925H143.629V27.3806H132.276V28.4925H137.387V41.6794H138.518V28.4925Z" fill="#4B5765"/>
<path d="M157.785 41.6794C162.018 41.6794 164.106 38.1096 164.106 34.5397C164.106 30.9504 161.999 27.3806 157.746 27.3806C153.513 27.3806 151.426 30.9504 151.426 34.5202C151.426 38.1096 153.533 41.6794 157.785 41.6794ZM157.668 28.4925C161.199 28.4925 162.935 31.4966 162.935 34.5007C162.935 37.5438 161.16 40.5675 157.785 40.5675C154.254 40.5675 152.538 37.5634 152.538 34.5788C152.538 31.5356 154.293 28.4925 157.668 28.4925Z" fill="#4B5765"/>
<path d="M173.077 41.6794V37.2512H174.482C174.95 37.2512 176.413 37.2317 177.076 37.1732C177.915 39.0654 179.046 40.5284 180.529 41.6794H182.46C180.431 40.2944 179.046 38.7533 178.188 36.9586C180.314 36.3344 181.855 34.6373 181.855 32.3159C181.855 28.9607 179.183 27.3806 176.003 27.3806H171.946V41.6794H173.077ZM173.077 36.1393V28.473H176.003C178.598 28.473 180.763 29.702 180.763 32.3159C180.763 34.9689 178.324 36.1393 175.769 36.1393H173.077Z" fill="#4B5765"/>
<path d="M191.443 41.6794V27.3806H190.312V41.6794H191.443Z" fill="#4B5765"/>
<path d="M212.623 41.6794L206.673 27.1855H205.776L199.553 41.6794H200.743C201.016 40.9966 201.426 40.1383 201.738 39.4165C201.913 39.0264 202.147 38.5387 202.303 38.1291H209.931L211.394 41.6794H212.623ZM206.224 29.0387C207.356 31.8477 208.37 34.2081 209.502 37.0172H202.733L206.224 29.0387Z" fill="#4B5765"/>
</svg>
